<svg width="48" height="60" viewBox="0 0 48 60" fill="none" xmlns="http://www.w3.org/2000/svg">
<path d="M6.272 56.085C5.19467 56.085 4.256 55.8504 3.456 55.381C2.66667 54.9117 2.05867 54.2397 1.632 53.365C1.20533 52.4797 0.992 51.4397 0.992 50.245C0.992 49.0504 1.20533 48.021 1.632 47.157C2.05867 46.2824 2.66667 45.6104 3.456 45.141C4.256 44.6717 5.19467 44.437 6.272 44.437C7.06133 44.437 7.78133 44.5597 8.432 44.805C9.09333 45.0397 9.664 45.397 10.144 45.877L9.648 46.885C9.104 46.4157 8.56533 46.0797 8.032 45.877C7.50933 45.6744 6.928 45.573 6.288 45.573C5.04 45.573 4.06933 45.9784 3.376 46.789C2.69333 47.5997 2.352 48.7517 2.352 50.245C2.352 51.749 2.69333 52.9117 3.376 53.733C4.05867 54.5437 5.02933 54.949 6.288 54.949C6.928 54.949 7.50933 54.8477 8.032 54.645C8.56533 54.4424 9.104 54.1064 9.648 53.637L10.144 54.645C9.664 55.125 9.09333 55.4877 8.432 55.733C7.78133 55.9677 7.06133 56.085 6.272 56.085ZM16.2015 47.717C18.1322 47.717 19.0975 48.7784 19.0975 50.901V55.957H17.8015V50.965C17.8015 50.2184 17.6522 49.6744 17.3535 49.333C17.0548 48.981 16.5855 48.805 15.9455 48.805C15.1988 48.805 14.6015 49.0344 14.1535 49.493C13.7055 49.9517 13.4815 50.5704 13.4815 51.349V55.957H12.1855V44.181H13.4815V49.221C13.7375 48.7304 14.1002 48.357 14.5695 48.101C15.0495 47.845 15.5935 47.717 16.2015 47.717ZM28.6329 47.909V55.957H27.3529V54.501C27.1182 55.0024 26.7609 55.3917 26.2809 55.669C25.8115 55.9357 25.2622 56.069 24.6329 56.069C23.9182 56.069 23.2889 55.8984 22.7449 55.557C22.2115 55.2157 21.7955 54.7357 21.4969 54.117C21.2089 53.4877 21.0649 52.757 21.0649 51.925C21.0649 51.093 21.2142 50.3624 21.5129 49.733C21.8115 49.093 22.2275 48.597 22.7609 48.245C23.3049 47.893 23.9289 47.717 24.6329 47.717C25.2622 47.717 25.8115 47.8557 26.2809 48.133C26.7502 48.4104 27.1075 48.7997 27.3529 49.301V47.909H28.6329ZM24.8889 54.997C25.6782 54.997 26.2862 54.7304 26.7129 54.197C27.1395 53.653 27.3529 52.885 27.3529 51.893C27.3529 50.901 27.1395 50.1384 26.7129 49.605C26.2862 49.0717 25.6782 48.805 24.8889 48.805C24.0995 48.805 23.4809 49.0824 23.0329 49.637C22.5955 50.181 22.3769 50.9437 22.3769 51.925C22.3769 52.9064 22.5955 53.6637 23.0329 54.197C23.4702 54.7304 24.0889 54.997 24.8889 54.997ZM31.1386 47.909H32.4346V55.957H31.1386V47.909ZM32.5946 44.501V45.973H31.0106V44.501H32.5946ZM38.6951 47.717C38.9618 47.717 39.2071 47.749 39.4311 47.813L39.3991 48.997C39.1538 48.9117 38.8711 48.869 38.5511 48.869C37.7725 48.869 37.1911 49.1144 36.8071 49.605C36.4338 50.085 36.2471 50.6717 36.2471 51.365V55.957H34.9511V50.165C34.9511 49.333 34.9085 48.581 34.8231 47.909H36.0551L36.1831 49.397C36.3858 48.853 36.7111 48.437 37.1591 48.149C37.6071 47.861 38.1191 47.717 38.6951 47.717ZM43.3899 56.069C42.0352 56.069 40.9632 55.7224 40.1739 55.029L40.6059 54.069C41.0432 54.4104 41.4859 54.6557 41.9339 54.805C42.3819 54.9544 42.8832 55.029 43.4379 55.029C44.0459 55.029 44.5045 54.9277 44.8139 54.725C45.1339 54.5117 45.2939 54.2077 45.2939 53.813C45.2939 53.493 45.1872 53.237 44.9739 53.045C44.7605 52.853 44.4085 52.7037 43.9179 52.597L42.5579 52.277C41.8859 52.1277 41.3632 51.861 40.9899 51.477C40.6272 51.093 40.4459 50.6344 40.4459 50.101C40.4459 49.397 40.7285 48.8264 41.2939 48.389C41.8592 47.941 42.6059 47.717 43.5339 47.717C44.0992 47.717 44.6325 47.8077 45.1339 47.989C45.6352 48.1704 46.0565 48.4317 46.3979 48.773L45.9659 49.717C45.2085 49.0877 44.3979 48.773 43.5339 48.773C42.9579 48.773 42.5099 48.885 42.1899 49.109C41.8805 49.3224 41.7259 49.6264 41.7259 50.021C41.7259 50.3517 41.8219 50.613 42.0139 50.805C42.2165 50.997 42.5365 51.1464 42.9739 51.253L44.3339 51.589C45.0805 51.7597 45.6352 52.0264 45.9979 52.389C46.3605 52.741 46.5419 53.205 46.5419 53.781C46.5419 54.4744 46.2592 55.029 45.6939 55.445C45.1285 55.861 44.3605 56.069 43.3899 56.069Z" fill="white"/>
<path d="M23.2 0.793036C19.722 0.793036 17.239 0.890952 15.5 1.96803C14.5931 2.53883 13.8984 3.3808 13.519 4.36893C12.9436 5.69896 12.6706 7.13564 12.719 8.57931C12.7198 9.301 12.8837 10.0136 13.199 10.6659C13.4071 11.0612 13.752 11.3711 14.172 11.5403V15.3394H11.478C11.3817 15.3642 11.2982 15.4233 11.244 15.5052C11.1898 15.587 11.1688 15.6858 11.185 15.782C11.3964 16.9622 11.851 18.0879 12.521 19.0906C12.6634 19.2985 12.8525 19.4718 13.0739 19.597C13.2952 19.7223 13.5429 19.7962 13.798 19.8132H14.178V31.7452C14.178 31.8426 14.2175 31.936 14.2879 32.0049C14.3582 32.0737 14.4536 32.1124 14.553 32.1124C14.6525 32.1124 14.7479 32.0737 14.8182 32.0049C14.8885 31.936 14.928 31.8426 14.928 31.7452V19.8122H16.428V28.7627C16.428 28.8601 16.4675 28.9535 16.5379 29.0224C16.6082 29.0912 16.7036 29.1299 16.803 29.1299C16.9025 29.1299 16.9979 29.0912 17.0682 29.0224C17.1385 28.9535 17.178 28.8601 17.178 28.7627V19.8122H29.178V28.7627C29.178 28.8601 29.2175 28.9535 29.2879 29.0224C29.3582 29.0912 29.4536 29.1299 29.553 29.1299C29.6525 29.1299 29.7479 29.0912 29.8182 29.0224C29.8885 28.9535 29.928 28.8601 29.928 28.7627V19.8122H31.428V31.7452C31.428 31.8426 31.4675 31.936 31.5379 32.0049C31.6082 32.0737 31.7036 32.1124 31.803 32.1124C31.9025 32.1124 31.9979 32.0737 32.0682 32.0049C32.1385 31.936 32.178 31.8426 32.178 31.7452V19.8122H32.553C32.8082 19.7955 33.056 19.7217 33.2774 19.5964C33.4988 19.4711 33.6879 19.2977 33.83 19.0896C34.5589 18.0903 35.0222 16.929 35.178 15.7105C35.1807 15.6613 35.1729 15.6122 35.1551 15.5661C35.1372 15.52 35.1098 15.4781 35.0745 15.443C35.0393 15.4079 34.9969 15.3804 34.9501 15.3622C34.9034 15.3441 34.8533 15.3356 34.803 15.3375H32.178V11.5383C32.5963 11.3724 32.941 11.0668 33.151 10.6757C33.5034 10.0449 33.6696 9.33058 33.631 8.6126C33.6619 7.17528 33.4195 5.74487 32.916 4.39438C32.5708 3.4075 31.903 2.55954 31.016 1.98173C29.132 0.781286 26.13 0.781286 23.2 0.793036ZM23.2 1.53916C27.256 1.52741 29.189 1.68799 30.62 2.59958C31.3727 3.0927 31.9341 3.81935 32.214 4.66267C32.695 5.92942 32.9205 7.27549 32.878 8.62631C32.9368 9.20609 32.8055 9.78913 32.503 10.2909C32.267 10.6825 31.981 10.8617 31.776 10.8617H14.55C14.362 10.8617 14.08 10.6884 13.85 10.2909C13.5746 9.77909 13.445 9.20408 13.475 8.62631C13.4385 7.26998 13.6898 5.92099 14.213 4.66463C14.531 3.81515 15.1237 3.09067 15.901 2.60154C17.379 1.68799 19.745 1.54111 23.201 1.54111L23.2 1.53916ZM14.925 11.6069H31.425V15.3355H14.925V11.6069ZM12.054 16.0816H34.442C34.2135 16.9981 33.806 17.8626 33.242 18.6274C33.1681 18.7472 33.0676 18.8492 32.948 18.9258C32.8284 19.0024 32.6927 19.0517 32.551 19.07H13.801C13.6593 19.0517 13.5236 19.0024 13.404 18.9258C13.2844 18.8492 13.1839 18.7472 13.11 18.6274C12.59 17.8555 12.2314 16.9902 12.055 16.0816H12.054Z" fill="white" stroke="white" stroke-width="0.5"/>
</svg>
