<svg width="33" height="33" viewBox="0 0 33 33" fill="none" xmlns="http://www.w3.org/2000/svg">
<path d="M29.5312 4.4472C29.5312 2.0463 22.4882 0.791016 15.5312 0.791016C8.57425 0.791016 1.53125 2.04826 1.53125 4.4472V7.39447C1.53125 9.57114 7.31725 10.8059 13.5813 11.0174V21.4307C9.47425 22.4931 6.52525 26.7348 6.52525 31.6864C6.52472 31.7434 6.53566 31.7999 6.55744 31.8527C6.57921 31.9055 6.6114 31.9537 6.65217 31.9943C6.69293 32.0349 6.74147 32.0673 6.79502 32.0896C6.84857 32.1119 6.90607 32.1236 6.96425 32.1241H9.98425C10.0424 32.1236 10.0999 32.1119 10.1535 32.0896C10.207 32.0673 10.2556 32.0349 10.2963 31.9943C10.3371 31.9537 10.3693 31.9055 10.3911 31.8527C10.4128 31.7999 10.4238 31.7434 10.4232 31.6864C10.4232 28.9937 11.6942 26.5782 13.5792 25.5579V31.6864C13.5787 31.7434 13.5897 31.7999 13.6114 31.8527C13.6332 31.9055 13.6654 31.9537 13.7062 31.9943C13.7469 32.0349 13.7955 32.0673 13.849 32.0896C13.9026 32.1119 13.9601 32.1236 14.0183 32.1241H17.0382C17.0964 32.1236 17.1539 32.1119 17.2075 32.0896C17.261 32.0673 17.3096 32.0349 17.3503 31.9943C17.3911 31.9537 17.4233 31.9055 17.4451 31.8527C17.4668 31.7999 17.4778 31.7434 17.4773 31.6864V25.5579C19.3622 26.5772 20.6333 28.9928 20.6333 31.6864C20.6327 31.7434 20.6437 31.7999 20.6654 31.8527C20.6872 31.9055 20.7194 31.9537 20.7602 31.9943C20.8009 32.0349 20.8495 32.0673 20.903 32.0896C20.9566 32.1119 21.0141 32.1236 21.0723 32.1241H24.0983C24.1564 32.1236 24.2139 32.1119 24.2675 32.0896C24.321 32.0673 24.3696 32.0349 24.4103 31.9943C24.4511 31.9537 24.4833 31.9055 24.5051 31.8527C24.5268 31.7999 24.5378 31.7434 24.5373 31.6864C24.5373 26.7348 21.5882 22.4931 17.4812 21.4307V11.0193C23.7453 10.8068 29.5312 9.57114 29.5312 7.39642V4.4472ZM23.6493 31.2487H21.5063C21.3583 28.1017 19.6262 25.3532 17.1902 24.471C17.1243 24.4471 17.0534 24.4394 16.9837 24.4484C16.914 24.4575 16.8476 24.483 16.7902 24.5229C16.7322 24.5637 16.6849 24.6176 16.6524 24.6799C16.6199 24.7422 16.603 24.8113 16.6032 24.8813V31.2458H14.4633V24.8813C14.4635 24.8113 14.4467 24.7422 14.4142 24.6798C14.3817 24.6175 14.3344 24.5637 14.2762 24.5229C14.2189 24.483 14.1525 24.4575 14.0828 24.4484C14.0131 24.4394 13.9422 24.4471 13.8763 24.471C11.4423 25.3522 9.70925 28.1027 9.56225 31.2487H7.41525C7.58425 26.7759 10.3282 23.0179 14.0692 22.2042H16.9983C20.7383 23.0179 23.4833 26.7759 23.6523 31.2487H23.6493ZM14.4612 21.3289V11.0418C14.8172 11.0477 15.1742 11.0526 15.5312 11.0526C15.8882 11.0526 16.2452 11.0526 16.6012 11.0418V21.3289H14.4612ZM28.6512 7.39544C28.6512 8.55673 23.6602 10.1772 15.5312 10.1772C7.40225 10.1772 2.41125 8.55673 2.41125 7.39544V5.81802C4.51125 7.32592 10.0452 8.10631 15.5312 8.10631C21.0173 8.10631 26.5552 7.32299 28.6512 5.81606V7.39544ZM15.5312 7.22899C7.40225 7.22899 2.41125 5.60848 2.41125 4.4472C2.41125 3.28591 7.40225 1.66541 15.5312 1.66541C23.6602 1.66541 28.6512 3.28591 28.6512 4.4472C28.6512 5.60848 23.6602 7.22899 15.5312 7.22899Z" fill="white" stroke="white" stroke-width="0.3"/>
</svg>
