<svg width="60" height="60" viewBox="0 0 60 60" fill="none" xmlns="http://www.w3.org/2000/svg">
<path d="M1.408 44.6275H2.72V54.8995H8.432V56.0195H1.408V44.6275ZM9.96675 47.9715H11.2628V56.0195H9.96675V47.9715ZM11.4228 44.5635V46.0355H9.83875V44.5635H11.4228ZM20.9473 47.9715V55.9555C20.9473 57.1502 20.6379 58.0515 20.0193 58.6595C19.4113 59.2782 18.5099 59.5875 17.3153 59.5875C16.0886 59.5875 15.0326 59.3102 14.1473 58.7555L14.3713 57.6995C14.8833 57.9875 15.3633 58.1955 15.8113 58.3235C16.2699 58.4515 16.7713 58.5155 17.3153 58.5155C18.0939 58.5155 18.6806 58.3075 19.0753 57.8915C19.4699 57.4862 19.6673 56.8782 19.6673 56.0675V54.1635C19.4219 54.6755 19.0593 55.0755 18.5793 55.3635C18.1099 55.6409 17.5499 55.7795 16.8993 55.7795C16.1953 55.7795 15.5659 55.6142 15.0113 55.2835C14.4673 54.9529 14.0459 54.4835 13.7473 53.8755C13.4486 53.2675 13.2993 52.5689 13.2993 51.7795C13.2993 50.9902 13.4486 50.2915 13.7473 49.6835C14.0459 49.0755 14.4673 48.6062 15.0113 48.2755C15.5659 47.9449 16.1953 47.7795 16.8993 47.7795C17.5393 47.7795 18.0939 47.9182 18.5633 48.1955C19.0433 48.4729 19.4059 48.8622 19.6513 49.3635V47.9715H20.9473ZM17.1553 54.6915C17.9339 54.6915 18.5419 54.4355 18.9793 53.9235C19.4273 53.4009 19.6513 52.6862 19.6513 51.7795C19.6513 50.8729 19.4273 50.1635 18.9793 49.6515C18.5419 49.1289 17.9339 48.8675 17.1553 48.8675C16.3659 48.8675 15.7419 49.1289 15.2833 49.6515C14.8353 50.1635 14.6113 50.8729 14.6113 51.7795C14.6113 52.6862 14.8353 53.4009 15.2833 53.9235C15.7419 54.4355 16.3659 54.6915 17.1553 54.6915ZM27.4515 47.7795C29.3822 47.7795 30.3475 48.8409 30.3475 50.9635V56.0195H29.0515V51.0275C29.0515 50.2809 28.9022 49.7369 28.6035 49.3955C28.3048 49.0435 27.8355 48.8675 27.1955 48.8675C26.4488 48.8675 25.8515 49.0969 25.4035 49.5555C24.9555 50.0142 24.7315 50.6329 24.7315 51.4115V56.0195H23.4355V44.2435H24.7315V49.2835C24.9875 48.7929 25.3502 48.4195 25.8195 48.1635C26.2995 47.9075 26.8435 47.7795 27.4515 47.7795ZM34.5229 48.9955V53.3955C34.5229 53.9929 34.6455 54.4142 34.8909 54.6595C35.1362 54.8942 35.4829 55.0115 35.9309 55.0115C36.2295 55.0115 36.5175 54.9635 36.7949 54.8675V55.9715C36.4642 56.0782 36.0909 56.1315 35.6749 56.1315C34.9069 56.1315 34.3042 55.9182 33.8669 55.4915C33.4402 55.0542 33.2269 54.4142 33.2269 53.5715V48.9955H31.6589V47.9715H33.2269V45.9075L34.5229 45.4435V47.9715H36.8269V48.9955H34.5229ZM38.3886 47.9715H39.6846V56.0195H38.3886V47.9715ZM39.8446 44.5635V46.0355H38.2606V44.5635H39.8446ZM46.2171 47.7795C48.1478 47.7795 49.1131 48.8409 49.1131 50.9635V56.0195H47.8171V51.0275C47.8171 50.2809 47.6678 49.7369 47.3691 49.3955C47.0705 49.0435 46.6011 48.8675 45.9611 48.8675C45.2145 48.8675 44.6171 49.0969 44.1691 49.5555C43.7211 50.0142 43.4971 50.6329 43.4971 51.4115V56.0195H42.2011V50.2275C42.2011 49.3955 42.1585 48.6435 42.0731 47.9715H43.3051L43.4331 49.4115C43.6785 48.8889 44.0465 48.4889 44.5371 48.2115C45.0278 47.9235 45.5878 47.7795 46.2171 47.7795ZM58.7285 47.9715V55.9555C58.7285 57.1502 58.4192 58.0515 57.8005 58.6595C57.1925 59.2782 56.2912 59.5875 55.0965 59.5875C53.8698 59.5875 52.8138 59.3102 51.9285 58.7555L52.1525 57.6995C52.6645 57.9875 53.1445 58.1955 53.5925 58.3235C54.0512 58.4515 54.5525 58.5155 55.0965 58.5155C55.8752 58.5155 56.4618 58.3075 56.8565 57.8915C57.2512 57.4862 57.4485 56.8782 57.4485 56.0675V54.1635C57.2032 54.6755 56.8405 55.0755 56.3605 55.3635C55.8912 55.6409 55.3312 55.7795 54.6805 55.7795C53.9765 55.7795 53.3472 55.6142 52.7925 55.2835C52.2485 54.9529 51.8272 54.4835 51.5285 53.8755C51.2298 53.2675 51.0805 52.5689 51.0805 51.7795C51.0805 50.9902 51.2298 50.2915 51.5285 49.6835C51.8272 49.0755 52.2485 48.6062 52.7925 48.2755C53.3472 47.9449 53.9765 47.7795 54.6805 47.7795C55.3205 47.7795 55.8752 47.9182 56.3445 48.1955C56.8245 48.4729 57.1872 48.8622 57.4325 49.3635V47.9715H58.7285ZM54.9365 54.6915C55.7152 54.6915 56.3232 54.4355 56.7605 53.9235C57.2085 53.4009 57.4325 52.6862 57.4325 51.7795C57.4325 50.8729 57.2085 50.1635 56.7605 49.6515C56.3232 49.1289 55.7152 48.8675 54.9365 48.8675C54.1472 48.8675 53.5232 49.1289 53.0645 49.6515C52.6165 50.1635 52.3925 50.8729 52.3925 51.7795C52.3925 52.6862 52.6165 53.4009 53.0645 53.9235C53.5232 54.4355 54.1472 54.6915 54.9365 54.6915Z" fill="white"/>
<path d="M29.8771 32.1866C31.0757 32.1814 32.2232 31.7103 33.0671 30.8768C33.9109 30.0434 34.3822 28.9158 34.3771 27.7422V26.8747H44.4921V26.4409C44.4883 22.7245 43.0196 19.153 40.3921 16.4711C37.779 13.8053 34.2048 12.2458 30.4331 12.1256V0.853516H29.5561V12.1256C25.7825 12.2457 22.2068 13.8072 19.5941 16.476C16.9644 19.16 15.4954 22.7352 15.4941 26.4546V26.8884H25.3811V27.7559C25.3806 28.9269 25.8537 30.0505 26.697 30.8808C27.5404 31.7112 28.6852 32.1807 29.8811 32.1866H29.8771ZM33.4991 27.7422C33.4991 28.2076 33.4055 28.6683 33.2237 29.0983C33.0418 29.5282 32.7752 29.9188 32.4392 30.2479C32.1031 30.5769 31.7041 30.838 31.2651 31.016C30.826 31.1941 30.3554 31.2858 29.8801 31.2858C29.4049 31.2858 28.9343 31.1941 28.4952 31.016C28.0561 30.838 27.6572 30.5769 27.3211 30.2479C26.9851 29.9188 26.7185 29.5282 26.5366 29.0983C26.3547 28.6683 26.2611 28.2076 26.2611 27.7422V26.8747H33.4991V27.7422ZM29.9921 13.001C33.5313 13.0087 36.9273 14.3699 39.4561 16.7942C42.0007 19.2323 43.4874 22.5369 43.6071 26.0208H16.3781C16.4927 22.5329 17.9771 19.2226 20.5221 16.7795C23.0517 14.3512 26.4506 12.9874 29.9931 12.9794L29.9921 13.001Z" fill="white" stroke="white" stroke-width="0.5"/>
</svg>
