<svg width="42" height="60" viewBox="0 0 42 60" fill="none" xmlns="http://www.w3.org/2000/svg">
<path d="M5.024 56.085C3.24267 56.085 1.824 55.605 0.768 54.645L1.264 53.637C1.82933 54.117 2.40533 54.4584 2.992 54.661C3.57867 54.8637 4.26133 54.965 5.04 54.965C5.95733 54.965 6.66133 54.789 7.152 54.437C7.65333 54.0744 7.904 53.5677 7.904 52.917C7.904 52.533 7.78133 52.2237 7.536 51.989C7.30133 51.7437 6.98667 51.5517 6.592 51.413C6.208 51.2744 5.69067 51.1304 5.04 50.981C4.16533 50.789 3.44533 50.581 2.88 50.357C2.31467 50.133 1.856 49.813 1.504 49.397C1.152 48.9704 0.976 48.4157 0.976 47.733C0.976 47.0824 1.14667 46.5117 1.488 46.021C1.82933 45.5197 2.30933 45.1304 2.928 44.853C3.55733 44.5757 4.288 44.437 5.12 44.437C5.90933 44.437 6.64533 44.5597 7.328 44.805C8.01067 45.0504 8.58667 45.4077 9.056 45.877L8.544 46.885C8.01067 46.4264 7.46667 46.0904 6.912 45.877C6.368 45.6637 5.77067 45.557 5.12 45.557C4.23467 45.557 3.54133 45.749 3.04 46.133C2.53867 46.5064 2.288 47.0237 2.288 47.685C2.288 48.261 2.50667 48.693 2.944 48.981C3.38133 49.269 4.05333 49.5197 4.96 49.733C5.94133 49.9677 6.70933 50.1864 7.264 50.389C7.82933 50.581 8.29867 50.8797 8.672 51.285C9.04533 51.6797 9.232 52.2077 9.232 52.869C9.232 53.509 9.06133 54.0744 8.72 54.565C8.37867 55.045 7.888 55.4184 7.248 55.685C6.61867 55.9517 5.87733 56.085 5.024 56.085ZM14.5448 56.069C13.7874 56.069 13.1208 55.8984 12.5448 55.557C11.9688 55.2157 11.5208 54.7304 11.2008 54.101C10.8914 53.4717 10.7368 52.7357 10.7368 51.893C10.7368 51.0504 10.8914 50.3144 11.2008 49.685C11.5208 49.0557 11.9688 48.5704 12.5448 48.229C13.1208 47.8877 13.7874 47.717 14.5448 47.717C15.3021 47.717 15.9688 47.8877 16.5448 48.229C17.1208 48.5704 17.5634 49.0557 17.8728 49.685C18.1928 50.3144 18.3528 51.0504 18.3528 51.893C18.3528 52.7357 18.1928 53.4717 17.8728 54.101C17.5634 54.7304 17.1208 55.2157 16.5448 55.557C15.9688 55.8984 15.3021 56.069 14.5448 56.069ZM14.5448 54.997C15.3448 54.997 15.9581 54.7357 16.3848 54.213C16.8114 53.6797 17.0248 52.9064 17.0248 51.893C17.0248 50.9117 16.8061 50.1544 16.3688 49.621C15.9314 49.077 15.3234 48.805 14.5448 48.805C13.7554 48.805 13.1421 49.077 12.7048 49.621C12.2674 50.1544 12.0488 50.9117 12.0488 51.893C12.0488 52.9064 12.2621 53.6797 12.6888 54.213C13.1261 54.7357 13.7448 54.997 14.5448 54.997ZM23.4454 45.237C23.0187 45.237 22.6827 45.3597 22.4374 45.605C22.2027 45.8397 22.0854 46.2504 22.0854 46.837V47.909H24.0534V48.933H22.0854V55.957H20.7894V48.933H19.2214V47.909H20.7894V46.677C20.7894 45.8344 20.9974 45.1997 21.4134 44.773C21.84 44.3357 22.432 44.117 23.1894 44.117C23.5627 44.117 23.9254 44.165 24.2774 44.261V45.365C23.9787 45.2797 23.7014 45.237 23.4454 45.237ZM32.7579 47.909V55.957H31.4779V54.501C31.2432 55.0024 30.8859 55.3917 30.4059 55.669C29.9365 55.9357 29.3872 56.069 28.7579 56.069C28.0432 56.069 27.4139 55.8984 26.8699 55.557C26.3365 55.2157 25.9205 54.7357 25.6219 54.117C25.3339 53.4877 25.1899 52.757 25.1899 51.925C25.1899 51.093 25.3392 50.3624 25.6379 49.733C25.9365 49.093 26.3525 48.597 26.8859 48.245C27.4299 47.893 28.0539 47.717 28.7579 47.717C29.3872 47.717 29.9365 47.8557 30.4059 48.133C30.8752 48.4104 31.2325 48.7997 31.4779 49.301V47.909H32.7579ZM29.0139 54.997C29.8032 54.997 30.4112 54.7304 30.8379 54.197C31.2645 53.653 31.4779 52.885 31.4779 51.893C31.4779 50.901 31.2645 50.1384 30.8379 49.605C30.4112 49.0717 29.8032 48.805 29.0139 48.805C28.2245 48.805 27.6059 49.0824 27.1579 49.637C26.7205 50.181 26.5019 50.9437 26.5019 51.925C26.5019 52.9064 26.7205 53.6637 27.1579 54.197C27.5952 54.7304 28.2139 54.997 29.0139 54.997ZM37.9836 56.069C36.629 56.069 35.557 55.7224 34.7676 55.029L35.1996 54.069C35.637 54.4104 36.0796 54.6557 36.5276 54.805C36.9756 54.9544 37.477 55.029 38.0316 55.029C38.6396 55.029 39.0983 54.9277 39.4076 54.725C39.7276 54.5117 39.8876 54.2077 39.8876 53.813C39.8876 53.493 39.781 53.237 39.5676 53.045C39.3543 52.853 39.0023 52.7037 38.5116 52.597L37.1516 52.277C36.4796 52.1277 35.957 51.861 35.5836 51.477C35.221 51.093 35.0396 50.6344 35.0396 50.101C35.0396 49.397 35.3223 48.8264 35.8876 48.389C36.453 47.941 37.1996 47.717 38.1276 47.717C38.693 47.717 39.2263 47.8077 39.7276 47.989C40.229 48.1704 40.6503 48.4317 40.9916 48.773L40.5596 49.717C39.8023 49.0877 38.9916 48.773 38.1276 48.773C37.5516 48.773 37.1036 48.885 36.7836 49.109C36.4743 49.3224 36.3196 49.6264 36.3196 50.021C36.3196 50.3517 36.4156 50.613 36.6076 50.805C36.8103 50.997 37.1303 51.1464 37.5676 51.253L38.9276 51.589C39.6743 51.7597 40.229 52.0264 40.5916 52.389C40.9543 52.741 41.1356 53.205 41.1356 53.781C41.1356 54.4744 40.853 55.029 40.2876 55.445C39.7223 55.861 38.9543 56.069 37.9836 56.069Z" fill="white"/>
<path d="M33.0406 30.1657H28.9836C28.8442 30.1675 28.7098 30.1151 28.6099 30.02C28.51 29.9249 28.4527 29.7949 28.4506 29.6585V28.2876H13.5026V29.6585C13.5005 29.7949 13.4431 29.9249 13.3432 30.02C13.2433 30.1151 13.1089 30.1675 12.9696 30.1657H8.91256C8.77323 30.1675 8.63884 30.1151 8.53891 30.02C8.43898 29.9249 8.38167 29.7949 8.37956 29.6585V28.1515C7.93678 28.0008 7.55226 27.7201 7.27845 27.3475C7.00463 26.975 6.85486 26.5288 6.84956 26.0698V20.5591C6.27919 20.2211 5.80727 19.7451 5.47923 19.1767C5.15119 18.6084 4.97808 17.967 4.97656 17.3142C4.99315 16.2794 5.4282 15.2932 6.1863 14.572C6.94441 13.8508 7.96367 13.4535 9.02056 13.4671C9.34696 13.4671 9.67222 13.5049 9.98956 13.5797V7.52162C10.0143 5.97449 10.6647 4.50012 11.7981 3.4219C12.9316 2.34368 14.4554 1.74963 16.0356 1.77004H25.9176C27.4976 1.74989 29.0213 2.34402 30.1547 3.42219C31.2881 4.50036 31.9385 5.97457 31.9636 7.52162V13.5797C32.281 13.5052 32.6062 13.4674 32.9326 13.4671C33.9895 13.4535 35.0087 13.8508 35.7668 14.572C36.5249 15.2932 36.96 16.2794 36.9766 17.3142C36.9751 17.9669 36.8022 18.6083 36.4743 19.1766C36.1465 19.7449 35.6748 20.221 35.1046 20.5591V26.0689C35.0994 26.5279 34.9497 26.9741 34.6759 27.3467C34.402 27.7193 34.0174 28 33.5746 28.1505V29.6575C33.5737 29.7252 33.5591 29.7921 33.5318 29.8543C33.5044 29.9165 33.4648 29.9728 33.4152 30.02C33.3656 30.0672 33.307 30.1044 33.2427 30.1294C33.1784 30.1544 33.1097 30.1667 33.0406 30.1657ZM29.5176 28.2857V29.1512H32.5076V28.2857H29.5176ZM9.44556 28.2857V29.1512H12.4356V28.2857H9.44556ZM32.9326 14.4795C32.1544 14.4696 31.404 14.7622 30.846 15.2932C30.2879 15.8243 29.9677 16.5504 29.9556 17.3122V27.2713H32.7766C33.107 27.2757 33.4256 27.1516 33.6626 26.9261C33.8996 26.7007 34.0356 26.3924 34.0406 26.0689V20.2918C34.0398 20.2784 34.0398 20.265 34.0406 20.2517C34.0449 20.1621 34.0734 20.0752 34.1231 19.9999C34.1728 19.9246 34.2419 19.8635 34.3236 19.8228C34.799 19.5896 35.1991 19.2321 35.4796 18.7898C35.7601 18.3475 35.9099 17.8377 35.9126 17.3171C35.9012 16.5542 35.581 15.8269 35.0221 15.2952C34.4633 14.7634 33.7117 14.4708 32.9326 14.4815V14.4795ZM13.0646 25.4246V27.2713H28.8886V25.4246H13.0646ZM9.02056 14.4815C8.24244 14.4715 7.49205 14.7642 6.93397 15.2952C6.37589 15.8262 6.05568 16.5523 6.04356 17.3142C6.04619 17.8348 6.19606 18.3445 6.47654 18.7868C6.75703 19.2291 7.15716 19.5867 7.63256 19.8199C7.71423 19.8603 7.78352 19.9212 7.83339 19.9964C7.88327 20.0715 7.91196 20.1582 7.91656 20.2478C7.91758 20.2637 7.91758 20.2798 7.91656 20.2957V26.0728C7.92261 26.3949 8.05845 26.7016 8.29446 26.9261C8.53047 27.1506 8.84754 27.2747 9.17656 27.2713H11.9976V17.3142C11.9854 16.5523 11.6652 15.8262 11.1072 15.2952C10.5491 14.7642 9.79869 14.4715 9.02056 14.4815ZM13.0646 19.86V24.4092H28.8886V19.861L13.0646 19.86ZM16.0356 2.78445C14.7341 2.7677 13.479 3.25699 12.5454 4.14502C11.6119 5.03305 11.0761 6.24735 11.0556 7.52162V13.9919C11.6528 14.3228 12.1535 14.7981 12.5096 15.3725C12.8716 15.9578 13.0632 16.6289 13.0636 17.3132V18.8446H28.8886V17.3142C28.889 16.6299 29.0805 15.9588 29.4426 15.3735C29.7992 14.7995 30.2997 14.3243 30.8966 13.9929V7.52162C30.876 6.24752 30.3404 5.03338 29.407 4.14537C28.4737 3.25737 27.2188 2.76796 25.9176 2.78445H16.0356Z" fill="white"/>
<path d="M15.5568 8.50391C15.7522 8.50488 15.9435 8.44892 16.1064 8.34313C16.2692 8.23734 16.3962 8.08651 16.4713 7.90983C16.5463 7.73316 16.566 7.53861 16.5278 7.35095C16.4896 7.16329 16.3953 6.99099 16.2568 6.85598C16.0717 6.67553 15.821 6.57422 15.5598 6.57422C15.2986 6.57422 15.048 6.67553 14.8628 6.85598C14.7248 6.99118 14.6309 7.16344 14.593 7.35094C14.5551 7.53844 14.5749 7.73274 14.6498 7.90922C14.7248 8.08571 14.8516 8.23643 15.0141 8.3423C15.1766 8.44816 15.3676 8.50441 15.5628 8.50391H15.5568Z" fill="white"/>
<path d="M20.7638 8.50391C20.9593 8.50488 21.1506 8.44892 21.3134 8.34313C21.4763 8.23734 21.6033 8.08651 21.6783 7.90983C21.7534 7.73316 21.7731 7.53861 21.7349 7.35095C21.6967 7.16329 21.6023 6.99099 21.4638 6.85598C21.2787 6.67553 21.0281 6.57422 20.7668 6.57422C20.5056 6.57422 20.255 6.67553 20.0698 6.85598C19.9318 6.99118 19.8379 7.16344 19.8 7.35094C19.7621 7.53844 19.7819 7.73274 19.8569 7.90922C19.9318 8.08571 20.0586 8.23643 20.2211 8.3423C20.3837 8.44816 20.5746 8.50441 20.7698 8.50391H20.7638Z" fill="white"/>
<path d="M25.9689 8.50391C26.1643 8.50488 26.3556 8.44892 26.5185 8.34313C26.6813 8.23734 26.8084 8.08651 26.8834 7.90983C26.9585 7.73316 26.9781 7.53861 26.9399 7.35095C26.9017 7.16329 26.8074 6.99099 26.6689 6.85598C26.4838 6.67553 26.2332 6.57422 25.9719 6.57422C25.7107 6.57422 25.4601 6.67553 25.2749 6.85598C25.1369 6.99118 25.043 7.16344 25.0051 7.35094C24.9672 7.53844 24.987 7.73274 25.0619 7.90922C25.1369 8.08571 25.2637 8.23643 25.4262 8.3423C25.5887 8.44816 25.7797 8.50441 25.9749 8.50391H25.9689Z" fill="white"/>
<path d="M15.5568 14.3584C15.7522 14.3594 15.9435 14.3034 16.1064 14.1976C16.2692 14.0918 16.3962 13.941 16.4713 13.7643C16.5463 13.5876 16.566 13.3931 16.5278 13.2054C16.4896 13.0178 16.3953 12.8455 16.2568 12.7105C16.0717 12.53 15.821 12.4287 15.5598 12.4287C15.2986 12.4287 15.048 12.53 14.8628 12.7105C14.7248 12.8457 14.6309 13.0179 14.593 13.2054C14.5551 13.3929 14.5749 13.5872 14.6498 13.7637C14.7248 13.9402 14.8516 14.0909 15.0141 14.1968C15.1766 14.3027 15.3676 14.3589 15.5628 14.3584H15.5568Z" fill="white"/>
<path d="M20.7638 14.3584C20.9593 14.3594 21.1506 14.3034 21.3134 14.1976C21.4763 14.0918 21.6033 13.941 21.6783 13.7643C21.7534 13.5876 21.7731 13.3931 21.7349 13.2054C21.6967 13.0178 21.6023 12.8455 21.4638 12.7105C21.2787 12.53 21.0281 12.4287 20.7668 12.4287C20.5056 12.4287 20.255 12.53 20.0698 12.7105C19.9318 12.8457 19.8379 13.0179 19.8 13.2054C19.7621 13.3929 19.7819 13.5872 19.8569 13.7637C19.9318 13.9402 20.0586 14.0909 20.2211 14.1968C20.3837 14.3027 20.5746 14.3589 20.7698 14.3584H20.7638Z" fill="white"/>
<path d="M25.9689 14.3584C26.1643 14.3594 26.3556 14.3034 26.5185 14.1976C26.6813 14.0918 26.8084 13.941 26.8834 13.7643C26.9585 13.5876 26.9781 13.3931 26.9399 13.2054C26.9017 13.0178 26.8074 12.8455 26.6689 12.7105C26.4838 12.53 26.2332 12.4287 25.9719 12.4287C25.7107 12.4287 25.4601 12.53 25.2749 12.7105C25.1369 12.8457 25.043 13.0179 25.0051 13.2054C24.9672 13.3929 24.987 13.5872 25.0619 13.7637C25.1369 13.9402 25.2637 14.0909 25.4262 14.1968C25.5887 14.3027 25.7797 14.3589 25.9749 14.3584H25.9689Z" fill="white"/>
</svg>
