<svg width="39" height="39" viewBox="0 0 39 39" fill="none" xmlns="http://www.w3.org/2000/svg">
<path fill-rule="evenodd" clip-rule="evenodd" d="M6.48375 24.9925C8.4825 24.9925 10.4163 24.6675 12.22 24.0825C12.7888 23.8875 13.4225 24.0338 13.8612 24.4725L16.4125 27.6737C21.0113 25.48 25.3175 21.3363 27.6087 16.575L24.44 13.8775C24.0013 13.4225 23.8713 12.7888 24.05 12.22C24.6512 10.4162 24.96 8.4825 24.96 6.48375C24.96 5.60625 25.6912 4.875 26.5687 4.875H32.1912C33.0687 4.875 34.125 5.265 34.125 6.48375C34.125 21.58 21.5637 34.125 6.48375 34.125C5.33 34.125 4.875 33.1012 4.875 32.2075V26.6012C4.875 25.7237 5.60625 24.9925 6.48375 24.9925Z" fill="#CF005D"/>
</svg>
